<svg xmlns="http://www.w3.org/2000/svg" xmlns:xlink="http://www.w3.org/1999/xlink" width="1366" zoomAndPan="magnify" viewBox="0 0 1024.5 576" height="768" preserveAspectRatio="xMidYMid meet" version="1.0"><defs><clipPath id="478b3f37e2"><path d="M 452 12.28125 L 503 12.28125 L 503 45 L 452 45 Z M 452 12.28125 " clip-rule="nonzero"/></clipPath></defs><path fill="#000000" d="M 533.359375 535.476562 C 522.816406 535.476562 512.679688 532.429688 505.734375 524.332031 C 496.300781 513.339844 496.660156 497.339844 491.785156 484.234375 C 484.578125 464.847656 464.128906 451.285156 443.414062 452.136719 C 443.394531 452.136719 443.382812 452.136719 443.371094 452.136719 C 441.9375 452.136719 441.894531 449.984375 443.328125 449.925781 C 465.664062 449.128906 486.5 463.6875 493.851562 483.464844 C 498.8125 496.828125 498.433594 512.429688 507.40625 522.890625 C 519.015625 536.417969 540.410156 534.835938 556.578125 528.832031 C 562.128906 526.773438 568.996094 523.679688 572.863281 517.984375 C 579.269531 508.5625 575.261719 496.21875 573.246094 491.347656 C 556.996094 452.191406 497.558594 434.945312 504.5625 415.050781 C 507.328125 407.183594 517.871094 407.316406 517.429688 407.414062 C 527.164062 407.433594 537.195312 414.730469 555.421875 409.476562 C 558.445312 408.609375 563.621094 406.511719 564.324219 402.230469 C 564.914062 398.644531 562.335938 395.164062 556.21875 391.273438 C 539.136719 380.40625 531.519531 376.542969 527.898438 369.835938 C 525.070312 364.609375 525.628906 356.863281 530.949219 353.65625 C 532.1875 352.898438 533.34375 354.792969 532.085938 355.550781 C 527.90625 358.066406 527.546875 364.546875 529.839844 368.785156 C 533.003906 374.644531 538.464844 377.363281 557.398438 389.410156 C 561.78125 392.191406 567.492188 396.589844 566.503906 402.585938 C 564.695312 413.546875 542.367188 414.769531 531.496094 412.402344 C 526.707031 411.351562 522.132812 409.628906 517.425781 409.621094 C 517.421875 409.621094 517.414062 409.621094 517.40625 409.621094 C 513.261719 409.621094 508.136719 411.546875 506.640625 415.785156 C 500.53125 433.148438 559.023438 451.296875 575.277344 490.5 C 577.4375 495.703125 581.699219 508.917969 574.691406 519.226562 C 567.410156 529.941406 546.371094 535.476562 533.359375 535.476562 Z M 533.359375 535.476562 " fill-opacity="1" fill-rule="nonzero"/><path fill="#000000" d="M 790.195312 180.214844 C 774.554688 242.5625 760.414062 301.21875 738.078125 367.953125 C 730.882812 389.265625 722.085938 403.828125 699.640625 402.71875 C 684.214844 401.9375 482.554688 350.566406 457.761719 344.539062 C 417.339844 334.734375 358.515625 328.816406 345.007812 281.105469 C 344.554688 279.589844 344.390625 278.277344 345.449219 277.085938 C 346.332031 291.839844 357.144531 305.050781 372.8125 308.847656 C 696.59375 387.78125 676.863281 382.726562 684.371094 383.105469 C 706.773438 384.210938 715.527344 369.777344 722.765625 348.339844 C 745.339844 280.898438 760.195312 219.238281 774.925781 160.601562 C 777.664062 149.425781 780.355469 136.835938 775.722656 125.925781 C 773.433594 121.328125 771.054688 117.359375 765.484375 113.644531 C 767.160156 113.777344 768.835938 114.570312 770.335938 115.453125 C 793.949219 129.324219 796.109375 156.140625 790.195312 180.214844 Z M 790.195312 180.214844 " fill-opacity="1" fill-rule="nonzero"/><path fill="#000000" d="M 555.863281 55.378906 C 555.554688 56.703125 555.246094 58.074219 554.71875 59.308594 L 508.113281 48 C 508.953125 41.90625 511.644531 35.457031 517.78125 34.925781 C 528.105469 34 540.019531 39.742188 549.378906 43.40625 C 556.050781 46.128906 557.304688 48.398438 555.863281 55.378906 Z M 555.863281 55.378906 " fill-opacity="1" fill-rule="nonzero"/><g clip-path="url(#478b3f37e2)"><path fill="#000000" d="M 501.804688 35.5 C 500.574219 40.253906 499.429688 42.902344 494.875 44.777344 L 453.21875 34.660156 C 452.820312 33.378906 452.644531 31.921875 452.730469 30.375 C 453.085938 23.308594 455.820312 13.28125 463.71875 12.929688 C 474.3125 12.441406 486.269531 18.847656 495.671875 23 C 502.21875 25.859375 503.636719 28.410156 501.804688 35.5 Z M 501.804688 35.5 " fill-opacity="1" fill-rule="nonzero"/></g><path fill="#000000" d="M 684.316406 384.207031 C 675.246094 383.75 695.769531 388.394531 372.554688 309.921875 C 353.136719 305.214844 340.605469 286.023438 345.214844 267.019531 L 399.273438 43.367188 C 402.144531 31.464844 414.570312 24.214844 427 27.179688 L 566.363281 60.976562 C 672.472656 86.632812 579.792969 65.480469 748.363281 105.0625 C 760.238281 108.164062 771.640625 113.863281 776.515625 125.085938 C 776.605469 125.21875 776.605469 125.226562 776.679688 125.371094 C 782.289062 138.566406 777.613281 153.203125 774.765625 165.941406 C 761.027344 221.757812 744.625 286.511719 723.8125 348.691406 C 716.433594 370.519531 707.320312 385.339844 684.316406 384.207031 Z M 401.421875 43.886719 L 347.359375 267.539062 C 343.050781 285.28125 354.753906 303.332031 373.070312 307.773438 C 696.355469 386.265625 675.65625 381.558594 684.429688 382 C 706.347656 383.066406 714.6875 368.800781 721.71875 347.984375 C 742.488281 285.953125 757.675781 225.757812 773.851562 160.335938 C 778.226562 142.488281 780.5 125.027344 764.871094 114.5625 C 756.183594 108.492188 745.039062 106.648438 743.015625 106.015625 C 684 93.179688 624.714844 77.359375 565.84375 63.125 L 426.480469 29.328125 C 415.3125 26.640625 404.015625 33.113281 401.421875 43.886719 Z M 401.421875 43.886719 " fill-opacity="1" fill-rule="nonzero"/><path fill="#b0d8ff" d="M 501.144531 85.902344 C 491.527344 82.222656 485.996094 80.105469 482.917969 88.996094 C 480.542969 95.925781 480.734375 101.542969 487.859375 103.085938 C 490.15625 103.574219 492.800781 103.351562 496.066406 102.425781 C 501.109375 100.9375 502.445312 98.980469 503.835938 93.234375 C 505.179688 87.738281 503.667969 86.832031 501.144531 85.902344 Z M 501.144531 85.902344 C 491.527344 82.222656 485.996094 80.105469 482.917969 88.996094 C 480.542969 95.925781 480.734375 101.542969 487.859375 103.085938 C 490.15625 103.574219 492.800781 103.351562 496.066406 102.425781 C 501.109375 100.9375 502.445312 98.980469 503.835938 93.234375 C 505.179688 87.738281 503.667969 86.832031 501.144531 85.902344 Z M 708.160156 119.296875 C 672.4375 110.640625 501.136719 69.105469 450.128906 56.792969 C 440.640625 54.496094 431.152344 59.972656 428.945312 69.074219 L 385.566406 248.460938 C 381.992188 263.171875 391.566406 278.101562 406.878906 281.8125 C 668.304688 345.546875 651.492188 341.167969 657.054688 341.449219 C 674.992188 342.335938 682.082031 330.707031 687.902344 313.53125 C 705.8125 260.046875 717.667969 210.933594 729.691406 162.984375 C 735.519531 139.3125 732.050781 125.617188 708.160156 119.296875 Z M 472.589844 78.570312 C 468.972656 80.867188 465.484375 83.339844 462.042969 85.902344 C 463.585938 89.347656 465.132812 92.792969 466.765625 96.195312 C 467.414062 97.496094 465.492188 98.40625 464.78125 97.125 C 463.234375 93.855469 461.691406 90.585938 460.234375 87.273438 C 452.457031 93.144531 452.917969 93.414062 452.113281 93.414062 C 451.007812 93.414062 450.652344 92.085938 451.40625 91.46875 C 453.96875 89.304688 456.617188 87.183594 459.308594 85.195312 C 458.027344 82.191406 456.746094 79.144531 455.554688 76.140625 C 455.035156 74.78125 457.058594 73.925781 457.585938 75.300781 C 458.734375 78.128906 459.925781 80.953125 461.117188 83.78125 C 464.46875 81.308594 467.914062 78.96875 471.398438 76.714844 C 472.542969 75.882812 473.835938 77.777344 472.589844 78.570312 Z M 505.996094 93.765625 C 504.203125 100.957031 502.105469 102.875 496.683594 104.542969 C 493.609375 105.414062 490.503906 105.820312 487.375 105.25 C 478.789062 103.367188 478.046875 96.554688 480.84375 88.289062 C 484.628906 77.628906 491.363281 79.894531 501.9375 83.828125 C 505.570312 85.210938 507.589844 87.179688 505.996094 93.765625 Z M 537.328125 101.9375 C 535.984375 101.9375 536.035156 100.160156 524.441406 99.242188 C 520.691406 98.933594 516.851562 98.582031 513.277344 97.300781 C 511.769531 96.71875 512.746094 94.707031 513.984375 95.222656 C 521.699219 97.964844 530.300781 96.078125 537.859375 99.863281 C 538.875 100.371094 538.519531 101.9375 537.328125 101.9375 Z M 501.144531 85.902344 C 491.527344 82.222656 485.996094 80.105469 482.917969 88.996094 C 480.542969 95.925781 480.734375 101.542969 487.859375 103.085938 C 490.15625 103.574219 492.800781 103.351562 496.066406 102.425781 C 501.109375 100.9375 502.445312 98.980469 503.835938 93.234375 C 505.179688 87.738281 503.667969 86.832031 501.144531 85.902344 Z M 501.144531 85.902344 " fill-opacity="1" fill-rule="nonzero"/><path fill="#000000" d="M 467.746094 171.789062 C 490.125 161.167969 513.269531 151.429688 536.519531 142.839844 C 537.894531 142.332031 538.644531 144.40625 537.285156 144.914062 C 514.089844 153.480469 491.011719 163.195312 468.695312 173.785156 C 467.339844 174.40625 466.453125 172.40625 467.746094 171.789062 Z M 467.746094 171.789062 " fill-opacity="1" fill-rule="nonzero"/><path fill="#000000" d="M 509.28125 187.625 C 503.640625 169.933594 498.152344 151.882812 492.984375 133.980469 C 492.582031 132.582031 494.695312 131.953125 495.101562 133.367188 C 500.269531 151.25 505.746094 169.277344 511.382812 186.953125 C 511.828125 188.347656 509.730469 189.019531 509.28125 187.625 Z M 509.28125 187.625 " fill-opacity="1" fill-rule="nonzero"/><path fill="#000000" d="M 585.417969 205.675781 C 607.804688 195.054688 630.941406 185.316406 654.191406 176.730469 C 655.582031 176.226562 656.3125 178.296875 654.957031 178.800781 C 631.765625 187.363281 608.6875 197.078125 586.367188 207.671875 C 585.027344 208.289062 584.113281 206.296875 585.417969 205.675781 Z M 585.417969 205.675781 " fill-opacity="1" fill-rule="nonzero"/><path fill="#000000" d="M 626.953125 221.511719 C 621.3125 203.824219 615.832031 185.773438 610.65625 167.867188 C 610.253906 166.46875 612.371094 165.847656 612.777344 167.257812 C 628.585938 221.984375 630.402344 221.570312 628.34375 222.226562 C 627.734375 222.414062 627.136719 222.070312 626.953125 221.511719 Z M 626.953125 221.511719 " fill-opacity="1" fill-rule="nonzero"/><path fill="#000000" d="M 583.117188 271.332031 C 580.664062 261.402344 577.753906 251.003906 571.589844 242.574219 C 554.339844 218.96875 516.347656 215.742188 488.148438 241.984375 C 487.09375 242.980469 485.570312 241.367188 486.648438 240.363281 C 515.925781 213.113281 555.394531 216.667969 573.375 241.269531 C 579.769531 250.019531 582.753906 260.660156 585.265625 270.804688 C 585.605469 272.226562 583.46875 272.746094 583.117188 271.332031 Z M 583.117188 271.332031 " fill-opacity="1" fill-rule="nonzero"/><path fill="#5fff9f" d="M 418.484375 515.539062 C 402.425781 526.085938 377.683594 534.1875 361.910156 523.355469 C 361.292969 522.914062 360.675781 522.472656 360.101562 521.941406 C 360.574219 521.941406 375.65625 514.660156 388.300781 506.261719 C 394.746094 501.976562 416.675781 484.261719 398.273438 479.183594 C 393.109375 477.722656 387.726562 479.710938 382.875 481.964844 C 372.457031 486.734375 368.179688 488.679688 362.484375 491.683594 C 364.46875 487.089844 364.160156 481.214844 359.261719 478.742188 C 355.46875 476.839844 350.921875 477.503906 346.6875 478.210938 C 351.089844 473.855469 350.421875 465.953125 346.511719 463.015625 C 354.425781 453.433594 366.886719 446.148438 378.195312 441.589844 C 378.605469 442.414062 394.605469 452.980469 406.175781 468.183594 C 406.21875 468.359375 406.308594 468.492188 406.4375 468.578125 L 406.484375 468.578125 C 425.691406 493.964844 418.214844 514.433594 418.484375 515.539062 Z M 418.484375 515.539062 " fill-opacity="1" fill-rule="nonzero"/><path fill="#5fff9f" d="M 380.492188 440.664062 C 409.757812 429.238281 431.957031 436.933594 442.050781 450.117188 C 430.09375 449.410156 417.207031 455.328125 407.277344 466.0625 C 399.644531 456.078125 389.976562 447.996094 380.492188 440.664062 Z M 380.492188 440.664062 " fill-opacity="1" fill-rule="nonzero"/><path fill="#5fff9f" d="M 421 513.8125 C 424.171875 498.007812 418.34375 480.496094 408.644531 467.828125 C 418.179688 457.359375 430.578125 451.574219 442.007812 452.324219 C 442.492188 452.367188 442.980469 452.015625 443.109375 451.53125 C 457.808594 472.777344 443.066406 498.175781 421 513.8125 Z M 421 513.8125 " fill-opacity="1" fill-rule="nonzero"/><path fill="#2c56fe" d="M 258.273438 561.445312 C 251.765625 557.730469 247.425781 551.175781 243.792969 544.613281 C 239.523438 536.902344 235.894531 528.867188 232.261719 520.839844 C 229.941406 515.707031 227.566406 510.246094 228.234375 504.652344 C 228.707031 500.710938 234.34375 491.585938 239.566406 494.753906 C 241.042969 495.65625 243.082031 502.878906 244.015625 504.710938 C 252.507812 521.503906 262.847656 536.90625 273.929688 552.269531 C 277.652344 557.417969 280.753906 562.082031 272.578125 563.550781 C 268.429688 564.292969 262.011719 563.574219 258.273438 561.445312 " fill-opacity="1" fill-rule="nonzero"/><path fill="#000000" d="M 316.929688 541.050781 C 315.550781 540.566406 316.289062 538.480469 317.664062 538.96875 C 324.515625 541.375 333.515625 542.367188 339.539062 541.394531 C 347.019531 540.152344 354.011719 536.410156 359.207031 530.863281 C 361.875 528.035156 362.945312 524.96875 359.703125 522.769531 C 358.496094 521.949219 359.734375 520.125 360.945312 520.941406 C 364.476562 523.34375 365.339844 527.585938 360.816406 532.375 C 355.289062 538.273438 347.855469 542.253906 339.898438 543.570312 C 333.179688 544.664062 323.671875 543.414062 316.929688 541.050781 Z M 316.929688 541.050781 " fill-opacity="1" fill-rule="nonzero"/><path fill="#000000" d="M 361.46875 491.246094 C 363.207031 487.230469 363.097656 481.914062 358.769531 479.726562 C 355.425781 478.054688 351.398438 478.542969 346.867188 479.300781 C 345.828125 479.484375 345.132812 478.191406 345.910156 477.425781 C 349.847656 473.535156 349.148438 466.375 345.847656 463.898438 C 342.875 461.210938 338.289062 460.59375 334.882812 462.363281 C 333.582031 463.03125 332.578125 461.070312 333.867188 460.398438 C 338.296875 458.101562 344.574219 458.976562 348.308594 463.257812 C 351.367188 466.972656 351.605469 472.578125 349.222656 476.707031 C 353.054688 476.191406 356.558594 476.148438 359.753906 477.75 C 365.371094 480.585938 365.628906 487.1875 363.496094 492.121094 C 362.914062 493.460938 360.890625 492.585938 361.46875 491.246094 Z M 361.46875 491.246094 " fill-opacity="1" fill-rule="nonzero"/><path fill="#000000" d="M 240.578125 496.046875 C 251.777344 490.265625 253.433594 488.902344 255.722656 487.019531 C 263.835938 480.339844 292.207031 464.941406 305.679688 455.125 C 311.4375 450.929688 317.390625 446.59375 324.84375 446.011719 C 329.75 445.640625 334.285156 447.507812 336.609375 450.90625 C 339.199219 454.710938 338.078125 460.332031 334.851562 462.433594 C 333.890625 463.074219 332.84375 463.449219 332.386719 462.386719 C 332.148438 461.824219 332.410156 461.175781 332.972656 460.9375 C 333.171875 460.851562 333.355469 460.761719 333.53125 460.65625 C 333.601562 460.585938 333.671875 460.523438 333.738281 460.484375 C 336.042969 458.808594 336.5625 454.757812 334.785156 452.152344 C 332.542969 448.867188 328.246094 447.964844 325.015625 448.214844 C 315.785156 448.933594 308.660156 456.230469 300.984375 461.078125 C 270.199219 480.570312 264.554688 482.605469 257.121094 488.726562 C 254.726562 490.695312 252.996094 492.117188 241.585938 498.007812 C 240.304688 498.683594 239.269531 496.722656 240.578125 496.046875 Z M 240.578125 496.046875 " fill-opacity="1" fill-rule="nonzero"/><path fill="#000000" d="M 283.832031 554.773438 C 318.90625 534.992188 353.835938 527.828125 387.691406 505.339844 C 393.542969 501.449219 405.304688 491.414062 404.3125 485.214844 C 403.953125 482.976562 401.824219 481.304688 397.980469 480.246094 C 393.179688 478.886719 388.113281 480.757812 383.335938 482.96875 C 364.132812 491.761719 365.226562 491.257812 348.167969 501.164062 C 346.898438 501.898438 345.804688 499.980469 347.0625 499.253906 C 364.484375 489.140625 363.28125 489.726562 382.410156 480.957031 C 387.5625 478.570312 393.074219 476.578125 398.578125 478.117188 C 415.105469 482.683594 402.964844 497.835938 388.914062 507.179688 C 376.921875 515.140625 362.058594 522.441406 360.570312 522.9375 L 360.570312 522.941406 C 335.472656 534.757812 309.972656 542.5625 284.917969 556.695312 C 283.65625 557.40625 282.554688 555.496094 283.832031 554.773438 Z M 283.832031 554.773438 " fill-opacity="1" fill-rule="nonzero"/><path fill="#000000" d="M 327.300781 485.480469 C 332.308594 482.785156 338.417969 479.769531 345.757812 477.835938 C 347.140625 477.445312 347.753906 479.59375 346.316406 479.972656 C 339.203125 481.84375 333.238281 484.792969 328.34375 487.425781 C 327.058594 488.121094 326.015625 486.171875 327.300781 485.480469 Z M 327.300781 485.480469 " fill-opacity="1" fill-rule="nonzero"/><path fill="#000000" d="M 320.519531 469.265625 C 323.5625 466.132812 328.183594 462.121094 332.914062 460.785156 C 334.34375 460.40625 334.902344 462.519531 333.511719 462.910156 C 329.03125 464.175781 324.441406 468.398438 322.105469 470.804688 C 321.070312 471.851562 319.511719 470.308594 320.519531 469.265625 Z M 320.519531 469.265625 " fill-opacity="1" fill-rule="nonzero"/><path fill="#000000" d="M 393.453125 491.882812 C 390.320312 490.722656 388.382812 487.121094 389.132812 483.863281 C 389.464844 482.441406 391.609375 482.933594 391.28125 484.359375 C 390.78125 486.535156 392.125 489.035156 394.21875 489.8125 C 396.308594 490.589844 398.953125 489.570312 399.988281 487.589844 C 400.683594 486.296875 402.617188 487.328125 401.945312 488.617188 C 400.390625 491.582031 396.578125 493.042969 393.453125 491.882812 Z M 393.453125 491.882812 " fill-opacity="1" fill-rule="nonzero"/><path fill="#000000" d="M 278.695312 560.386719 C 259.625 543.492188 249.445312 517.597656 238.523438 491.988281 C 237.941406 490.636719 239.988281 489.785156 240.546875 491.121094 C 251.304688 516.335938 261.550781 542.246094 280.160156 558.734375 C 281.25 559.699219 279.792969 561.363281 278.695312 560.386719 Z M 278.695312 560.386719 " fill-opacity="1" fill-rule="nonzero"/><path fill="#000000" d="M 677.816406 327.664062 C 690.839844 316.285156 717.824219 283.453125 737.359375 299.253906 C 744.617188 305.125 748.042969 314.414062 750.929688 323.300781 C 765.144531 367.035156 767.789062 415.644531 762.867188 460.472656 C 762.160156 466.898438 763.734375 479.566406 755.347656 481.523438 C 751.554688 482.410156 747.632812 481.078125 743.972656 479.75 C 706.398438 466.109375 654.246094 445.226562 612.78125 426.101562 C 609.09375 424.402344 605.359375 422.644531 602.316406 419.957031 C 595.386719 413.828125 594.703125 405.84375 603.351562 397.441406 C 629.066406 372.472656 651.246094 350.878906 677.816406 327.664062 Z M 677.816406 327.664062 " fill-opacity="1" fill-rule="nonzero"/><path fill="#f6d356" d="M 665.011719 323.1875 C 678.035156 311.808594 705.019531 278.976562 724.554688 294.777344 C 731.8125 300.648438 735.242188 309.941406 738.128906 318.824219 C 752.339844 362.5625 754.988281 411.167969 750.0625 455.996094 C 749.359375 462.421875 750.929688 475.089844 742.542969 477.050781 C 738.75 477.9375 734.828125 476.605469 731.167969 475.273438 C 693.59375 461.632812 641.441406 440.75 599.976562 421.625 C 596.292969 419.925781 592.558594 418.171875 589.515625 415.480469 C 582.582031 409.355469 581.898438 401.367188 590.546875 392.96875 C 616.261719 367.996094 638.441406 346.402344 665.011719 323.1875 Z M 665.011719 323.1875 " fill-opacity="1" fill-rule="nonzero"/><path fill="#000000" d="M 681.808594 397.53125 C 682.570312 397.175781 679.757812 400.800781 711.621094 358.3125 C 715.355469 353.328125 713.453125 346.191406 707.742188 343.707031 C 706.382812 343.109375 705.011719 342.519531 703.652344 341.925781 C 698.746094 339.78125 692.894531 341.96875 690.953125 346.949219 C 686.136719 359.273438 682.734375 372.511719 677.882812 385.0625 C 676.5625 388.453125 673.46875 392.820312 676.890625 395.988281 C 677.703125 396.746094 680.378906 398.152344 681.808594 397.53125 " fill-opacity="1" fill-rule="nonzero"/><path fill="#000000" d="M 671.417969 421.210938 C 667.015625 423.675781 661.613281 422.417969 659.375 418.398438 C 657.125 414.386719 658.890625 409.132812 663.292969 406.664062 C 667.695312 404.195312 673.09375 405.445312 675.335938 409.472656 C 677.578125 413.492188 675.820312 418.742188 671.417969 421.210938 " fill-opacity="1" fill-rule="nonzero"/><path fill="#000000" d="M 382.5625 207.820312 C 379.8125 207.417969 381.375 208.101562 370.726562 204.628906 C 369.3125 204.167969 370.070312 204.40625 360.265625 211.753906 C 359.632812 212.226562 359.429688 212.609375 359.558594 213.300781 C 360.085938 216.113281 360.53125 218.941406 361.039062 221.757812 C 361.449219 224.015625 360.425781 225.574219 357.945312 226.367188 C 341.476562 231.613281 337.800781 233.660156 335.078125 228.289062 C 334.421875 227 333.847656 225.671875 333.355469 224.316406 C 333.042969 223.460938 332.820312 220.929688 332.125 220.386719 C 331.398438 219.820312 328.207031 220.171875 327.191406 220.125 C 322.316406 219.898438 321.238281 219.667969 320.546875 220.542969 C 316.925781 225.09375 314.722656 228.960938 312.449219 228.738281 C 311.933594 228.6875 312.160156 228.738281 302.40625 224.476562 C 299.734375 223.3125 296.867188 221.960938 295.769531 219.449219 C 294.308594 216.105469 296.417969 213.546875 297.824219 210.5 C 298.144531 209.808594 297.984375 209.425781 297.488281 208.90625 C 289.804688 200.871094 290.542969 200.613281 288.957031 200.960938 C 286.238281 201.558594 276.253906 203.957031 274.027344 202.761719 C 271.992188 201.667969 270 194.984375 269.515625 192.585938 C 269.296875 191.480469 269.574219 191.351562 270.230469 190.714844 C 272.914062 188.097656 268.085938 184.886719 272.863281 182.746094 C 275.90625 181.378906 278.960938 180.042969 282.03125 178.742188 C 283.550781 178.101562 282.859375 176.167969 283.035156 175.007812 C 283.382812 172.683594 284.601562 170.164062 285.421875 167.914062 C 287.914062 161.113281 292.839844 149.34375 297.660156 143.945312 C 301.285156 139.878906 307.902344 138.105469 307.503906 136.007812 C 306.957031 133.160156 306.515625 130.292969 306.011719 127.433594 C 305.605469 125.160156 306.617188 123.621094 309.105469 122.832031 C 311.664062 122.015625 314.21875 121.203125 316.777344 120.390625 C 318.746094 119.765625 321.828125 117.996094 323.578125 119.390625 C 324.117188 119.820312 324.496094 120.390625 324.875 120.949219 C 331.359375 130.628906 329.964844 128.667969 336.898438 128.898438 C 345.601562 129.191406 345.75 129.785156 346.703125 128.484375 C 348.496094 126.035156 350.375 123.636719 352.226562 121.222656 C 353.757812 119.226562 355.570312 118.738281 357.859375 119.75 C 364.628906 122.738281 364.082031 122.363281 364.601562 122.738281 C 364.921875 122.96875 365.15625 123.492188 365.605469 123.542969 C 365.910156 123.574219 366.226562 123.445312 366.445312 123.238281 C 366.578125 123.109375 366.679688 122.953125 366.847656 122.871094 C 367.742188 122.429688 371.894531 125.226562 372.582031 126.074219 C 373.511719 127.222656 373.539062 129.023438 372.9375 130.382812 C 371.777344 133.019531 370.722656 135.742188 369.390625 138.324219 C 368.320312 140.390625 368.152344 142.304688 369.605469 144.175781 C 371.132812 146.136719 374.785156 147.777344 376.230469 147.894531 C 376.789062 147.9375 377.359375 147.84375 377.917969 147.753906 C 379.605469 147.476562 382.59375 147.492188 383.214844 145.394531 C 384.003906 144.277344 384.101562 143.925781 385.824219 143.644531 C 389.253906 143.089844 390.320312 143.820312 391.359375 145.777344 C 392.601562 148.101562 393.011719 150.886719 393.8125 153.398438 C 394.710938 156.234375 395.609375 159.070312 396.5 161.90625 C 397.117188 163.863281 396.300781 165.5 394.183594 166.453125 C 384 171.03125 384.207031 170.34375 384.046875 171.78125 C 382.796875 182.921875 382.179688 182.609375 383.386719 183.304688 C 385.921875 184.765625 388.417969 186.273438 390.917969 187.777344 C 393.359375 189.25 393.710938 190.769531 392.230469 193.246094 C 382.847656 208.945312 385.441406 205.027344 382.5625 207.820312 Z M 360.148438 166.050781 C 355.660156 152.84375 340.355469 146.144531 325.726562 151.054688 C 310.835938 156.046875 302.757812 170.339844 306.953125 183.140625 C 311.316406 196.46875 326.816406 203.085938 341.449219 198.117188 C 356.304688 193.070312 364.15625 178.789062 360.148438 166.050781 Z M 360.148438 166.050781 " fill-opacity="1" fill-rule="nonzero"/><path fill="#2c56fe" d="M 378.160156 204.585938 C 375.410156 204.183594 376.972656 204.867188 366.324219 201.394531 C 364.910156 200.933594 365.667969 201.171875 355.863281 208.519531 C 355.230469 208.992188 355.027344 209.375 355.15625 210.066406 C 355.683594 212.878906 356.128906 215.707031 356.640625 218.523438 C 357.046875 220.78125 356.027344 222.339844 353.546875 223.128906 C 348.6875 224.679688 343.832031 226.222656 338.972656 227.761719 C 336.476562 228.550781 334.800781 227.867188 333.8125 225.753906 C 332.585938 223.128906 331.292969 220.53125 330.078125 217.898438 C 329.8125 217.324219 329.46875 217.167969 328.785156 217.144531 C 317.828125 216.769531 316.949219 216.296875 316.144531 217.308594 C 314.167969 219.789062 312.285156 222.324219 310.351562 224.832031 C 308.898438 226.71875 307.050781 227.214844 304.90625 226.269531 C 300.488281 224.328125 296.082031 222.367188 291.683594 220.386719 C 289.308594 219.320312 288.726562 217.8125 289.75 215.484375 C 290.957031 212.742188 292.164062 209.992188 293.425781 207.265625 C 294.015625 205.984375 293.71875 206.675781 286.324219 198.324219 C 285.285156 197.152344 285.679688 197.558594 274.878906 199.710938 C 272.601562 200.164062 271 199.332031 270.367188 197.359375 C 268.953125 192.929688 267.546875 188.496094 266.152344 184.058594 C 265.535156 182.101562 266.351562 180.457031 268.460938 179.511719 C 271.503906 178.144531 274.558594 176.808594 277.632812 175.507812 C 279.046875 174.910156 278.253906 174.835938 279.90625 164.148438 C 280.128906 162.699219 280.117188 163.253906 271.4375 157.984375 C 269.375 156.730469 268.988281 155.117188 270.226562 153.039062 C 272.714844 148.855469 275.207031 144.675781 277.707031 140.496094 C 278.867188 138.558594 280.667969 137.84375 282.867188 138.503906 C 293.117188 141.582031 292.5 141.917969 293.71875 140.9375 C 303.015625 133.464844 303.34375 134.035156 303.101562 132.773438 C 302.554688 129.925781 302.113281 127.058594 301.609375 124.199219 C 301.207031 121.925781 302.21875 120.386719 304.703125 119.597656 C 309.5625 118.046875 314.417969 116.503906 319.277344 114.964844 C 321.753906 114.183594 323.464844 114.882812 324.433594 116.980469 C 325.617188 119.546875 326.867188 122.078125 328.039062 124.648438 C 328.367188 125.367188 328.828125 125.566406 329.714844 125.585938 C 341.316406 125.847656 341.28125 126.640625 342.300781 125.25 C 344.09375 122.800781 345.972656 120.402344 347.824219 117.988281 C 349.355469 115.992188 351.167969 115.503906 353.457031 116.515625 C 357.871094 118.464844 362.28125 120.425781 366.675781 122.40625 C 368.90625 123.410156 369.5 124.960938 368.535156 127.148438 C 367.328125 129.890625 366.121094 132.636719 364.859375 135.363281 C 364.199219 136.785156 364.5625 136.125 372.007812 144.5 C 372.914062 145.523438 372.402344 145.207031 383.375 143.011719 C 385.648438 142.558594 387.25 143.394531 387.882812 145.375 C 389.296875 149.804688 390.703125 154.238281 392.097656 158.671875 C 392.714844 160.628906 391.902344 162.265625 389.78125 163.21875 C 379.597656 167.796875 379.804688 167.109375 379.644531 168.546875 C 379.269531 171.894531 378.839844 175.234375 378.34375 178.574219 C 378.125 180.046875 378.113281 179.484375 386.515625 184.542969 C 388.957031 186.015625 389.308594 187.535156 387.832031 190.011719 C 378.445312 205.710938 381.042969 201.792969 378.160156 204.585938 Z M 355.746094 162.816406 C 351.257812 149.609375 335.953125 142.910156 321.324219 147.820312 C 306.433594 152.8125 298.355469 167.105469 302.550781 179.90625 C 306.917969 193.234375 322.414062 199.851562 337.046875 194.882812 C 351.902344 189.835938 359.753906 175.554688 355.746094 162.816406 Z M 355.746094 162.816406 " fill-opacity="1" fill-rule="nonzero"/><path fill="#000000" d="M 313.71875 104.425781 C 313.132812 103.777344 312.589844 103.296875 312.203125 102.730469 C 308.101562 96.675781 308.664062 96.660156 307.457031 96.640625 C 298.789062 96.511719 298.96875 96.050781 298.484375 96.925781 C 297.488281 98.722656 296.445312 100.492188 295.4375 102.28125 C 294.632812 103.71875 293.355469 104.113281 291.621094 103.414062 C 278.113281 97.96875 276.355469 98.335938 278.949219 91.015625 C 279.167969 90.402344 280.203125 88.898438 280.066406 88.28125 C 279.921875 87.632812 277.996094 86.367188 277.457031 85.875 C 274.859375 83.515625 274.371094 82.894531 273.585938 83.0625 C 268.160156 84.203125 265.988281 85.308594 264.945312 83.25 C 261.648438 76.730469 259.640625 73.6875 260.378906 71.109375 C 261.097656 68.589844 263.433594 68.140625 265.605469 67.097656 C 266.101562 66.863281 266.183594 66.574219 266.148438 66.0625 C 265.570312 58.097656 266.097656 58.292969 265.058594 57.757812 C 256.265625 53.238281 255.480469 52.480469 255.957031 50.191406 C 256.234375 48.878906 257.722656 44.003906 258.691406 43.601562 C 258.898438 43.515625 259.148438 43.53125 259.382812 43.511719 C 262.0625 43.292969 260.859375 39.304688 264.480469 40.308594 C 266.789062 40.945312 269.089844 41.605469 271.386719 42.292969 C 272.515625 42.632812 273.019531 41.25 273.644531 40.6875 C 275.445312 39.070312 289.269531 31.210938 295.9375 30.195312 C 299.800781 29.605469 304.277344 31.65625 305.011719 30.3125 C 306.011719 28.488281 307.078125 26.699219 308.105469 24.886719 C 308.921875 23.441406 310.183594 23.054688 311.921875 23.757812 C 313.710938 24.476562 315.496094 25.199219 317.285156 25.917969 C 318.660156 26.476562 321.171875 26.90625 321.503906 28.480469 C 321.742188 29.617188 320.808594 34.953125 321.152344 36.300781 C 321.582031 37.980469 322.363281 37.667969 328.664062 43.632812 C 329.609375 44.527344 329.222656 44.289062 336.515625 42.617188 C 338.277344 42.210938 339.503906 42.773438 340.308594 44.382812 C 342.792969 49.34375 342.558594 48.675781 342.671875 49.121094 C 342.742188 49.398438 342.632812 49.792969 342.859375 50.027344 C 343.011719 50.183594 343.25 50.257812 343.464844 50.242188 C 343.867188 50.214844 343.992188 50.140625 344.257812 50.601562 C 344.734375 51.425781 345.570312 53.640625 345.5625 54.625 C 345.554688 55.6875 344.742188 56.691406 343.789062 57.171875 C 341.941406 58.097656 340.117188 59.121094 338.199219 59.9375 C 334.910156 61.339844 335.148438 64.160156 336.875 67.320312 C 337.402344 68.289062 337.6875 68.527344 338.605469 69.0625 C 339.664062 69.683594 341.3125 71.0625 342.613281 70.1875 C 343.5625 69.925781 343.777344 69.777344 344.859375 70.414062 C 345.6875 70.898438 346.558594 71.46875 346.898438 72.304688 C 347.621094 74.101562 345.644531 77.414062 344.820312 79.46875 C 344.019531 81.449219 343.21875 83.429688 342.417969 85.40625 C 341.863281 86.769531 340.664062 87.304688 339.058594 86.859375 C 331.328125 84.730469 331.757812 84.441406 331.011719 85.167969 C 325.230469 90.757812 325.03125 90.300781 325.378906 91.242188 C 326.113281 93.210938 326.808594 95.1875 327.503906 97.164062 C 328.179688 99.097656 327.679688 100.097656 325.730469 100.792969 C 322.492188 101.941406 319.273438 103.121094 316.011719 104.222656 C 315.34375 104.445312 314.53125 104.363281 313.71875 104.425781 Z M 320.410156 71.046875 C 323.964844 61.6875 318.558594 50.96875 308.21875 46.984375 C 297.695312 42.929688 286.691406 47.136719 283.164062 56.140625 C 279.488281 65.515625 285.035156 76.273438 295.402344 80.226562 C 305.933594 84.238281 316.804688 79.929688 320.410156 71.046875 Z M 320.410156 71.046875 " fill-opacity="1" fill-rule="nonzero"/><path fill="#5fff9f" d="M 312.761719 100.621094 C 312.175781 99.972656 311.632812 99.492188 311.25 98.925781 C 307.144531 92.867188 307.707031 92.851562 306.5 92.835938 C 297.832031 92.707031 298.011719 92.246094 297.527344 93.117188 C 296.53125 94.914062 295.488281 96.683594 294.480469 98.476562 C 293.675781 99.914062 292.398438 100.308594 290.664062 99.609375 C 287.269531 98.238281 283.875 96.867188 280.484375 95.496094 C 278.742188 94.789062 278.125 93.644531 278.546875 92.023438 C 279.066406 90.007812 279.539062 87.976562 280.070312 85.964844 C 280.1875 85.527344 280.066406 85.28125 279.699219 84.957031 C 273.808594 79.726562 273.539062 79.0625 272.628906 79.253906 C 265.902344 80.671875 263.820312 82.070312 262.316406 79.070312 C 260.761719 75.96875 259.21875 72.867188 257.6875 69.757812 C 256.863281 68.078125 257.230469 66.976562 258.859375 66.160156 C 265.082031 63.03125 265.269531 63.335938 265.191406 62.257812 C 264.613281 54.289062 265.140625 54.488281 264.101562 53.953125 C 262 52.871094 259.921875 51.742188 257.84375 50.621094 C 256.375 49.828125 255.867188 48.632812 256.421875 47.25 C 257.664062 44.152344 258.914062 41.054688 260.167969 37.960938 C 260.722656 36.59375 261.925781 36.058594 263.523438 36.5 C 271.203125 38.625 270.816406 38.925781 271.574219 38.195312 C 277.441406 32.53125 277.566406 33.078125 277.183594 32.039062 C 276.433594 30.019531 275.71875 27.984375 275.011719 25.953125 C 274.441406 24.316406 274.964844 23.246094 276.601562 22.664062 C 279.890625 21.488281 283.179688 20.316406 286.472656 19.148438 C 288 18.609375 289.324219 19.039062 290.238281 20.410156 C 294.503906 26.808594 294.007812 26.710938 295.132812 26.726562 C 303.691406 26.851562 303.613281 27.316406 304.054688 26.507812 C 305.054688 24.683594 306.121094 22.890625 307.148438 21.082031 C 307.964844 19.636719 309.226562 19.25 310.964844 19.949219 C 314.359375 21.320312 317.753906 22.6875 321.144531 24.0625 C 322.875 24.765625 323.503906 25.9375 323.078125 27.539062 C 322.5625 29.5 322.09375 31.476562 321.570312 33.433594 C 321.421875 33.980469 321.585938 34.304688 322.066406 34.71875 C 328.367188 40.179688 327.984375 40.601562 329.183594 40.300781 C 331.296875 39.765625 333.433594 39.300781 335.558594 38.8125 C 337.320312 38.40625 338.546875 38.96875 339.351562 40.574219 C 340.902344 43.675781 342.445312 46.78125 343.972656 49.890625 C 344.746094 51.46875 344.367188 52.597656 342.835938 53.363281 C 336.671875 56.453125 336.351562 56.214844 336.433594 57.308594 C 336.621094 59.726562 336.734375 62.140625 336.820312 64.554688 C 336.855469 65.496094 336.820312 65.183594 343.792969 68.941406 C 345.257812 69.730469 345.761719 70.925781 345.207031 72.3125 C 343.964844 75.410156 342.714844 78.507812 341.460938 81.601562 C 340.90625 82.964844 339.707031 83.5 338.101562 83.054688 C 330.371094 80.925781 330.800781 80.636719 330.054688 81.359375 C 328.320312 83.039062 326.554688 84.691406 324.753906 86.3125 C 323.957031 87.027344 324.210938 86.710938 326.546875 93.359375 C 327.222656 95.289062 326.722656 96.292969 324.773438 96.984375 C 321.535156 98.132812 318.316406 99.316406 315.054688 100.414062 C 314.386719 100.640625 313.574219 100.554688 312.761719 100.621094 Z M 319.453125 67.242188 C 323.007812 57.882812 317.601562 47.164062 307.261719 43.179688 C 296.738281 39.121094 285.734375 43.332031 282.207031 52.335938 C 278.53125 61.707031 284.078125 72.46875 294.445312 76.421875 C 304.976562 80.433594 315.847656 76.125 319.453125 67.242188 Z M 319.453125 67.242188 " fill-opacity="1" fill-rule="nonzero"/><path fill="#000000" d="M 486.375 471.390625 C 480.371094 473.125 472.527344 468.273438 470.917969 462.074219 C 470.195312 459.28125 472.089844 455.132812 475.277344 455.082031 C 476.113281 455.066406 476.929688 455.332031 477.722656 455.597656 C 482.050781 457.050781 486.523438 458.847656 489.394531 462.398438 C 492.464844 466.199219 491.40625 469.9375 486.375 471.390625 Z M 486.375 471.390625 " fill-opacity="1" fill-rule="nonzero"/><path fill="#000000" d="M 496.980469 505.917969 C 498.769531 504.09375 501.953125 504.546875 503.976562 506.101562 C 509.5 510.347656 507.738281 521.191406 500.652344 517.3125 C 495.226562 514.34375 494.65625 508.289062 496.980469 505.917969 Z M 496.980469 505.917969 " fill-opacity="1" fill-rule="nonzero"/><path fill="#000000" d="M 549.351562 533.992188 C 547.042969 531.226562 548.121094 526.816406 550.585938 524.1875 C 557.304688 517.019531 572.296875 520.960938 565.839844 530.421875 C 560.921875 537.632812 552.355469 537.589844 549.351562 533.992188 Z M 549.351562 533.992188 " fill-opacity="1" fill-rule="nonzero"/><path fill="#000000" d="M 576.398438 485.214844 C 574.378906 488.199219 569.847656 488.378906 566.644531 486.734375 C 557.902344 482.246094 557.601562 466.753906 568.417969 470.335938 C 576.699219 473.078125 579.023438 481.335938 576.398438 485.214844 Z M 576.398438 485.214844 " fill-opacity="1" fill-rule="nonzero"/><path fill="#000000" d="M 541.097656 453.476562 C 539.078125 456.460938 534.546875 456.640625 531.34375 454.996094 C 522.601562 450.507812 522.304688 435.011719 533.121094 438.597656 C 541.398438 441.339844 543.722656 449.59375 541.097656 453.476562 Z M 541.097656 453.476562 " fill-opacity="1" fill-rule="nonzero"/><path fill="#000000" d="M 551.957031 409.640625 C 552.925781 413.113281 550.128906 416.691406 546.804688 418.070312 C 537.734375 421.84375 525.6875 412.074219 535.460938 406.109375 C 542.90625 401.5625 550.699219 405.128906 551.957031 409.640625 Z M 551.957031 409.640625 " fill-opacity="1" fill-rule="nonzero"/><path fill="#000000" d="M 738.40625 87.125 L 733.804688 65.636719 C 733.488281 64.191406 735.664062 63.769531 735.957031 65.175781 L 740.558594 86.664062 C 740.875 88.105469 738.703125 88.558594 738.40625 87.125 Z M 738.40625 87.125 " fill-opacity="1" fill-rule="nonzero"/><path fill="#000000" d="M 750.769531 91.589844 C 755.914062 79.574219 761.941406 67.816406 768.679688 56.640625 C 769.449219 55.390625 771.316406 56.539062 770.566406 57.785156 C 763.878906 68.871094 757.902344 80.535156 752.796875 92.460938 C 752.230469 93.800781 750.1875 92.9375 750.769531 91.589844 Z M 750.769531 91.589844 " fill-opacity="1" fill-rule="nonzero"/><path fill="#000000" d="M 763.988281 97.199219 L 786.480469 84.410156 C 787.710938 83.671875 788.855469 85.597656 787.566406 86.328125 L 765.074219 99.117188 C 763.84375 99.84375 762.6875 97.933594 763.988281 97.199219 Z M 763.988281 97.199219 " fill-opacity="1" fill-rule="nonzero"/><path fill="#000000" d="M 300.480469 407.953125 C 276.257812 386.988281 245.644531 343.257812 271.523438 324.222656 C 266.492188 315.867188 268.269531 305.5 271.410156 296.273438 C 277.570312 278.105469 288.492188 261.863281 302.988281 249.316406 C 304.085938 248.363281 305.539062 250.027344 304.429688 250.984375 C 290.234375 263.28125 279.535156 279.183594 273.496094 296.984375 C 270.613281 305.472656 268.777344 315.261719 273.355469 323.003906 C 282.511719 317.507812 291.609375 320.96875 293.414062 324.855469 C 296.546875 331.636719 282.425781 338.953125 272.757812 326.054688 C 248.558594 343.960938 279.078125 386.507812 301.921875 406.28125 C 303.035156 407.246094 301.5625 408.898438 300.480469 407.953125 Z M 274.585938 324.839844 C 282.507812 335.308594 293.347656 330.003906 291.414062 325.785156 C 289.988281 322.71875 282.054688 320.433594 274.585938 324.839844 Z M 274.585938 324.839844 " fill-opacity="1" fill-rule="nonzero"/></svg>